# Blender 3.4.1
# www.blender.org
mtllib finishline.mtl
o Cylinder.001
v -0.552233 0.001945 0.000000
v 0.459808 0.001961 -0.015186
v 0.492677 0.721946 -0.000000
v 0.571601 0.800000 -0.000000
v -0.519557 0.721946 0.000000
v 0.492817 0.721946 -0.001429
v 0.571601 0.600000 -0.000000
v -0.548856 0.001947 -0.018268
v 0.500293 0.721973 -0.008962
v -0.563128 0.800000 0.000000
v -0.512233 0.722008 -0.009239
v -0.563128 0.600000 0.000000
v 0.498761 0.001948 -0.041471
v -0.513585 0.001958 -0.042944
v 0.534674 0.001950 -0.023169
v -0.475990 0.001947 -0.019373
v 0.507183 0.721946 -0.001429
v 0.533664 0.001962 0.027627
v 0.507323 0.721946 -0.000000
v 0.507183 0.721946 0.001429
v -0.472233 0.001945 0.000000
v -0.504910 0.721946 0.000000
v 0.499707 0.721974 0.008962
v -0.483343 0.001966 0.033002
v -0.511637 0.721987 0.009096
v 0.477265 0.001957 0.036457
v -0.541644 0.001956 0.031322
v 0.492817 0.721946 0.001429
v -0.519416 0.721946 0.001429
v -0.525091 0.600000 0.000000
v -0.519557 0.721946 0.000000
v -0.504910 0.721946 0.000000
v -0.499376 0.600000 0.000000
v 0.507323 0.721946 -0.000000
v 0.492677 0.721946 -0.000000
v 0.512858 0.600000 -0.000000
v 0.487142 0.600000 -0.000000
v 0.492677 0.721946 -0.000000
v 0.507323 0.721946 -0.000000
v 0.512858 0.600000 -0.000000
v 0.487142 0.600000 -0.000000
vn -1.0000 -0.0000 -0.0000
vn -0.9990 0.0453 -0.0000
vn -0.9990 0.0454 -0.0000
vn -0.9824 0.0446 -0.1816
vn -0.5728 0.0394 -0.8187
vn 0.5308 0.0386 -0.8466
vn 0.9990 0.0453 -0.0000
vn 1.0000 -0.0000 -0.0000
vn 0.7833 0.0355 -0.6206
vn 0.9469 0.0430 0.3187
vn -0.0288 0.0320 0.9991
vn -0.0005 1.0000 -0.0048
vn -0.9465 0.0425 0.3200
vn -0.0000 1.0000 -0.0000
vn 0.0001 1.0000 -0.0000
vn 0.0001 1.0000 0.0001
vn -0.5589 0.0386 -0.8283
vn 0.4537 0.0392 -0.8903
vn 0.1546 0.0329 0.9874
vn -0.9465 0.0417 0.3199
vn 0.0001 -1.0000 0.0002
vn -0.7833 0.0355 -0.6206
vn -0.8497 0.0498 -0.5249
vn -0.9204 0.0417 -0.3888
vn -0.9204 0.0418 -0.3888
vn 0.9000 0.0408 -0.4340
vn 0.9807 0.0445 -0.1902
vn 0.8515 0.0502 -0.5220
vn 0.8031 0.0513 0.5937
vn -0.0000 -0.0000 -0.0000
vn -0.0000 1.0000 0.0068
vn -0.7012 0.0512 0.7111
vn -0.9942 0.0451 0.0979
vn 0.0008 -1.0000 0.0001
vn -0.0014 -1.0000 0.0002
vn 0.0004 -1.0000 0.0001
vn -0.0002 -1.0000 -0.0001
vn 0.0002 -1.0000 0.0004
vn -0.0000 -0.0000 -1.0000
vn -0.0000 1.0000 0.0001
vn -0.9941 0.0474 -0.0979
vn -0.0001 1.0000 -0.0000
vn -0.7092 0.0460 -0.7035
vn 0.7372 0.0485 -0.6740
vn 0.9991 0.0373 0.0199
vn 0.9944 0.0409 -0.0979
vn 0.9944 0.0401 0.0980
vn 0.7090 0.0517 0.7033
vn -0.0001 -1.0000 -0.0000
vn -0.0000 -1.0000 -0.0000
vn 0.0043 1.0000 0.0004
vn -0.0000 1.0000 -0.0032
vn -0.0046 1.0000 0.0005
vn 0.0045 1.0000 -0.0004
vn -0.0041 1.0000 -0.0004
vn -0.0000 1.0000 0.0031
vn -0.7378 0.0183 0.6747
vn -0.9942 0.0433 0.0979
vn -0.0003 -1.0000 -0.0000
vn -0.0000 -1.0000 0.0001
vt 0.549679 0.000000
vt 0.573475 0.140324
vt 0.500020 0.000387
vt 0.612012 0.000000
vt 0.282642 0.633988
vt 0.343668 0.000931
vt 0.579274 0.090918
vt 0.573475 0.140324
vt 0.375197 0.635204
vt 0.176162 1.000000
vt 0.573475 0.140324
vt 0.521048 0.635204
vt 0.573475 0.140324
vt 0.373955 0.635251
vt 0.575804 0.141757
vt 0.000000 1.000000
vt 0.230627 0.633861
vt 0.534772 0.000215
vt 0.626860 0.006002
vt 0.325657 0.000169
vt 0.371652 0.635380
vt 0.467248 0.000068
vt 0.575605 0.149007
vt 0.176162 0.000000
vt 0.275624 0.000169
vt 0.546446 0.635218
vt 0.499253 0.635141
vt 0.575582 0.159743
vt 0.000000 0.000000
vt 0.304390 0.634917
vt 0.610916 0.071405
vt 0.254354 0.634867
vt 0.641073 0.037099
vt 0.327128 0.635441
vt 0.437095 0.634464
vt 0.638424 0.089389
vt 0.280454 0.635458
vt 0.490791 0.000070
vt 0.621692 0.066819
vt 0.469475 0.000166
vt 0.573475 0.140324
vt 0.581771 0.152922
vt 0.183002 0.633962
vt 0.631157 0.127912
vt 0.465035 0.635309
vt 0.470740 0.000203
vt 0.573475 0.140324
vt 0.471981 0.000227
vt 0.583992 0.151735
vt 0.573475 0.140324
vt 0.573475 0.000000
vt 0.643637 0.634838
vt 0.474202 0.000391
vt 0.605101 0.070162
vt 0.643637 0.000000
vt 0.573475 0.635165
vt 0.573475 0.140324
vt 0.579929 0.166077
vt 0.225994 0.000238
vt 0.473770 0.000237
vt 0.584182 0.144463
vt 0.378689 0.635138
vt 0.421494 0.000075
vt 0.556885 0.000269
vt 0.582940 0.053847
vt 0.425117 0.635249
vt 0.575326 0.172218
vt 0.570458 0.635212
vt 0.524529 0.635138
vt 0.221237 0.635384
vt 0.375552 0.000020
vt 0.588656 0.131048
vt 0.388857 0.001095
vt 0.521038 0.000039
vt 0.586974 0.010666
vt 0.573475 0.140324
vt 0.578025 0.140570
vt 0.376462 0.635167
vt 0.573475 0.140324
vt 0.578670 0.178860
vt 0.522313 0.635168
vt 0.549679 0.527588
vt 0.573475 0.140324
vt 0.000000 0.033521
vt 0.549679 0.635165
vt 0.573475 0.140324
vt 0.579929 0.178984
vt 0.579929 0.153169
vt 0.107411 0.038398
vt 0.495293 0.635205
vt 0.573475 0.140324
vt 0.579929 0.166077
vt 0.107411 0.051306
vt 0.573475 0.140324
vt 0.643637 0.107522
vt 0.491721 0.527687
vt 0.000000 0.056183
vt 0.573475 0.140324
vt 0.573475 0.140324
vt 0.000000 0.948232
vt 0.573475 0.140324
vt 0.000000 0.925569
vt 0.573475 0.140324
vt 0.107411 0.930447
vt 0.573475 0.140324
vt 0.576856 0.141055
vt 0.107411 0.943354
vt 0.573475 0.140324
vt 0.582940 0.152438
vt 0.573475 0.140324
vt 0.573475 0.140324
s 0
f 5/11/1 31/86/2 30/83/3
f 8/18/4 1/1/4 30/82/4
f 11/25/5 14/32/5 8/17/5
f 11/25/6 16/37/6 14/32/6
f 22/57/7 33/94/7 32/91/8
f 11/27/9 32/90/9 33/96/9
f 22/56/10 24/64/10 21/51/10
f 25/66/11 27/73/11 24/63/11
f 25/67/12 22/58/12 29/80/12
f 29/81/13 1/3/13 27/74/13
f 38/105/1 35/99/14 37/103/15
f 39/108/16 36/101/1 40/110/14
f 41/111/15 35/99/1 38/105/14
f 3/8/1 38/105/2 41/111/3
f 9/20/17 13/30/17 2/5/17
f 9/20/18 15/34/18 13/30/18
f 19/47/7 40/110/7 39/108/8
f 23/59/19 26/70/19 18/43/19
f 23/62/20 2/6/20 26/71/20
f 15/36/21 18/44/21 26/72/21
f 31/85/22 11/26/22 30/82/22
f 11/26/23 8/18/23 30/82/23
f 1/2/24 5/11/25 30/83/25
f 33/95/26 22/55/26 21/52/26
f 21/53/27 16/38/27 33/96/27
f 16/38/28 11/27/28 33/96/28
f 22/56/29 25/68/29 24/64/29
f 22/57/30 32/91/30 31/86/30
f 31/86/1 5/11/14 29/79/14
f 22/58/14 31/87/14 29/80/14
f 31/88/31 32/92/31 11/28/31
f 25/69/32 29/81/32 27/74/32
f 29/81/33 5/12/33 1/3/33
f 1/4/34 8/19/34 27/75/34
f 16/39/35 21/54/35 24/65/35
f 27/75/36 8/19/36 14/33/36
f 14/33/37 16/39/37 27/75/37
f 24/65/38 27/75/38 16/39/38
f 31/89/39 30/84/39 12/29/39
f 4/10/39 7/16/39 39/107/39
f 7/16/39 36/100/39 39/107/39
f 31/89/39 12/29/39 10/24/39
f 37/102/39 33/97/39 32/93/39
f 32/93/39 31/89/39 10/24/39
f 37/102/39 32/93/39 38/104/39
f 32/93/39 10/24/39 38/104/39
f 36/101/14 34/98/1 39/108/14
f 10/24/39 4/10/39 38/104/39
f 4/10/39 39/107/39 38/104/39
f 41/111/1 37/103/14 35/99/40
f 6/14/41 2/6/41 3/9/41
f 38/105/42 6/13/14 3/8/1
f 6/14/43 9/21/43 2/6/43
f 9/22/44 17/40/44 15/35/44
f 19/46/45 18/45/45 15/35/45
f 19/46/46 15/35/46 17/40/46
f 19/47/14 17/41/14 39/108/8
f 19/46/47 20/48/47 18/45/47
f 20/48/48 23/60/48 18/45/48
f 38/105/1 3/8/49 28/76/50
f 23/61/51 20/49/51 39/109/51
f 20/50/14 19/47/8 39/108/14
f 39/109/52 38/106/52 23/61/52
f 38/106/53 28/77/53 23/61/53
f 39/109/54 17/42/54 9/23/54
f 9/23/55 6/15/55 38/106/55
f 38/106/56 39/109/56 9/23/56
f 23/62/57 28/78/57 2/6/57
f 28/78/58 3/9/58 2/6/58
f 26/72/59 2/7/59 13/31/59
f 26/72/60 13/31/60 15/36/60
