# Blender 3.4.1
# www.blender.org
mtllib slope.mtl
o Landscape.002
v -6.263188 -1.619160 6.323750
v -4.239053 -1.494042 1.586879
v -4.756957 -1.605948 1.940966
v -3.520879 -1.059342 0.628541
v -3.107825 -1.481307 2.642282
v -2.877056 -1.517730 3.083121
v -3.206699 -1.238055 1.537415
v -2.807810 -1.311459 2.036474
v -2.852585 -0.888747 0.824192
v 1.193095 -1.638285 6.322886
v -2.749526 -1.160430 1.583270
v -2.039435 -1.382766 2.825901
v -2.259017 -1.352958 2.610099
v -2.232485 -0.216366 -0.650611
v -2.505076 -1.172319 1.680578
v -2.215871 -0.796821 0.625310
v -2.404763 -1.036212 1.381373
v -2.403466 -0.878721 0.984536
v -2.395277 -0.622176 0.213371
v -2.228948 -1.248774 2.096423
v -2.122334 -0.960936 1.107557
v -1.999727 -1.089924 1.615571
v -2.114936 -0.825864 0.815534
v -2.101166 -0.601719 -0.069319
v -1.801340 -0.617505 0.044639
v -1.767977 -0.496599 -0.215569
v -1.687355 -1.247820 2.416103
v -1.443824 -1.110111 2.125304
v -1.514077 -1.010076 1.781585
v -1.434860 -0.881628 1.171782
v -1.624696 -0.816036 0.897074
v -1.635695 -0.783834 0.677672
v -1.783142 -0.391578 -0.638713
v -1.441942 -1.293954 2.826953
v -1.397599 -0.702348 0.513728
v -1.495511 -0.568662 0.123308
v -1.485881 -0.498408 -0.294013
v -1.132972 -1.474440 4.038038
v -1.132108 -1.143132 2.380220
v -1.235834 -0.990447 1.729187
v -1.014632 -0.467772 -0.155809
v -1.248406 -0.312162 -0.904069
v -0.796192 -1.359231 3.662756
v -0.844063 -0.781143 1.218456
v -1.066813 -0.716901 0.968480
v -0.999845 -0.567006 0.265751
v -1.124189 -0.096729 -1.313659
v -0.853685 -1.269213 3.151016
v -0.685312 -1.007268 2.184218
v -0.386171 -1.473000 4.642865
v -0.265418 -0.881628 2.002373
v -0.818503 -0.217122 -0.929809
v -0.713996 -0.099393 -1.147114
v -0.487204 -1.092372 2.778821
v -0.442952 -0.610575 0.943613
v -0.490687 -0.273543 -0.396928
v -0.430936 -1.370130 4.086521
v -0.575054 -0.150270 -0.838144
v -0.024055 -1.119219 3.414482
v -0.390896 -1.094352 2.999520
v -0.204146 -0.134079 -0.602371
v -0.406223 -0.045924 -0.926884
v -0.147140 -1.121163 3.157190
v -0.192230 -1.058127 2.726099
v -0.229391 -0.050010 -0.748396
v -0.274715 0.088527 -1.082503
v 0.805222 -1.073931 3.918131
v -0.044576 0.034725 -0.928558
v -0.158210 0.303708 -1.387864
v 0.119548 -1.065822 2.901078
v 1.024903 -0.009816 0.123335
v 0.119566 0.056658 -0.798040
v -0.001655 0.374277 -1.467739
v 1.617203 -1.318101 4.944384
v 0.224660 0.191325 -1.173241
v 0.387964 -0.044610 -0.333307
v 0.445745 0.131520 -0.885196
v 0.392590 0.301962 -1.311751
v 0.295372 0.432786 -1.512487
v 0.479323 0.256746 -1.062901
v 0.349363 0.552405 -1.668655
v 0.339049 0.634791 -1.828539
v 0.269200 0.672636 -1.976653
v 0.258049 0.976179 -2.242603
v 0.784648 0.002325 -0.355420
v 0.660025 0.476679 -1.523584
v 0.552430 0.701778 -2.069857
v 0.546499 0.939027 -2.371303
v 0.699887 0.156900 -0.824518
v 0.668233 0.289740 -1.109890
v 0.699670 0.358608 -1.312768
v 0.792289 0.680142 -1.816624
v 0.758251 1.019397 -2.468566
v 0.952471 0.069762 -0.437077
v 0.915940 0.151986 -0.613801
v 0.878833 0.201783 -0.900748
v 1.057673 0.446862 -1.329913
v 0.978014 0.638301 -1.630261
v 1.535338 -0.823065 3.278654
v 1.128808 0.088752 -0.224137
v 0.971704 0.208425 -0.738856
v 0.920611 0.800067 -1.983457
v 0.932914 1.214913 -2.629882
v 1.402309 0.323076 0.125288
v 1.258462 0.270561 -0.459514
v 1.206145 0.238431 -0.626176
v 1.126090 0.330978 -0.964657
v 1.198802 0.605883 -1.437310
v 1.263448 0.914826 -1.953343
v 1.327879 1.364160 -2.606607
v 1.366112 0.319665 -0.084682
v 1.262269 0.372567 -0.789121
v 1.273232 0.441795 -1.066249
v 1.499014 0.756399 -1.422442
v 1.483084 0.971067 -1.827892
v 1.350811 1.070247 -2.185867
v 1.441666 0.472917 -0.341821
v 1.534087 0.492816 -0.490825
v 1.428427 0.544737 -1.142938
v 1.494658 0.838551 -1.610290
v 1.552979 1.211016 -2.290267
v 1.509842 1.398099 -2.632699
v 1.584046 1.628850 -2.728342
v 1.538902 0.444603 -0.096427
v 1.730675 0.902973 -1.293301
v 1.522126 1.066674 -1.969714
v 1.762246 1.399629 -2.528146
v 1.567703 0.646608 -0.616257
v 1.659016 1.052670 -1.567801
v 1.696385 1.167825 -1.741654
v 1.714501 1.236963 -2.000818
v 1.955134 1.487019 -2.521963
v 1.897282 1.268724 -1.631017
v 2.110519 1.453260 -1.830250
v 2.264527 1.661898 -2.436706
v 2.434924 1.602633 -1.689328
v 2.658016 1.891362 -2.281888
v 2.822140 1.949151 -2.094607
v 2.853946 2.053479 -1.567305
v 3.045701 2.093790 -2.196954
v 3.223387 2.434503 -1.221624
v 3.105029 2.208639 -1.729926
v 3.606157 2.360541 -2.077308
v 3.506276 2.250408 -1.371025
v 3.743137 2.276670 -1.727541
vn -0.1245 0.9838 0.1289
vn -0.1677 0.9714 0.1681
vn -0.2205 0.9398 0.2610
vn -0.1804 0.9667 0.1817
vn -0.1883 0.9387 0.2886
vn -0.0926 0.9334 0.3467
vn -0.1533 0.9179 0.3661
vn -0.0257 0.9800 0.1973
vn 0.1096 0.9238 0.3670
vn -0.0437 0.9546 0.2945
vn -0.0160 0.9682 0.2497
vn 0.0805 0.9039 0.4201
vn -0.0811 0.9780 0.1924
vn -0.1749 0.8020 0.5712
vn -0.2626 0.8940 0.3632
vn -0.0490 0.9832 0.1761
vn -0.0453 0.9637 0.2632
vn 0.3500 0.9120 0.2138
vn -0.0505 0.9626 0.2661
vn -0.1418 0.9508 0.2756
vn -0.1299 0.9501 0.2836
vn -0.1045 0.9620 0.2523
vn -0.1590 0.9636 0.2150
vn -0.1917 0.9696 0.1519
vn -0.1023 0.9330 0.3451
vn -0.0696 0.9705 0.2309
vn -0.1333 0.9612 0.2415
vn -0.1336 0.9747 0.1793
vn -0.1815 0.9510 0.2505
vn -0.1939 0.9466 0.2574
vn -0.1723 0.8924 0.4171
vn -0.2386 0.9470 0.2150
vn -0.1769 0.9521 0.2493
vn -0.1900 0.9573 0.2177
vn -0.2360 0.9404 0.2447
vn -0.3575 0.8823 0.3061
vn -0.1572 0.9688 0.1918
vn -0.1559 0.9748 0.1594
vn -0.2893 0.9367 0.1973
vn -0.0839 0.9821 0.1685
vn -0.3752 0.8727 0.3124
vn -0.3451 0.8660 0.3617
vn -0.2035 0.9597 0.1938
vn -0.2431 0.9422 0.2305
vn -0.1790 0.8143 0.5522
vn -0.0602 0.9868 0.1506
vn -0.2651 0.9484 0.1741
vn -0.1580 0.8345 0.5278
vn -0.1047 0.9753 0.1943
vn -0.0346 0.8586 0.5114
vn -0.2990 0.8818 0.3648
vn -0.0755 0.8217 0.5649
vn -0.0764 0.8168 0.5718
vn -0.1207 0.9400 0.3192
vn -0.3524 0.8915 0.2848
vn -0.2272 0.9336 0.2771
vn 0.0029 0.8890 0.4579
vn -0.0157 0.9669 0.2545
vn 0.1755 0.6524 0.7373
vn -0.1126 0.9903 0.0816
vn -0.0962 0.9511 0.2935
vn -0.2097 0.8175 0.5364
vn -0.1155 0.9694 0.2164
vn -0.1459 0.8014 0.5800
vn -0.1026 0.9782 0.1808
vn -0.3195 0.8813 0.3481
vn -0.0453 0.9037 0.4257
vn -0.1835 0.8426 0.5064
vn -0.1027 0.9438 0.3142
vn -0.2984 0.9404 0.1633
vn -0.2101 0.9744 0.0805
vn -0.3296 0.8140 0.4783
vn -0.4665 0.7612 0.4506
vn -0.2608 0.9182 0.2981
vn -0.2668 0.9117 0.3124
vn -0.3639 0.8660 0.3429
vn -0.3882 0.7270 0.5664
vn -0.2842 0.8379 0.4660
vn -0.3131 0.8020 0.5087
vn -0.6465 0.6831 0.3397
vn -0.4014 0.8487 0.3444
vn -0.4488 0.7383 0.5035
vn -0.4424 0.7928 0.4192
vn -0.6598 0.6756 0.3289
vn -0.7051 0.6941 0.1455
vn -0.3328 0.7974 0.5033
vn -0.4291 0.8171 0.3849
vn -0.2564 0.7858 0.5629
vn -0.5441 0.7813 0.3058
vn -0.6282 0.7074 0.3239
vn -0.4123 0.8449 0.3408
vn -0.3438 0.4518 0.8232
vn -0.8048 -0.2595 -0.5338
vn -0.7734 0.5224 0.3592
vn -0.7096 0.6480 0.2767
vn -0.6405 0.7520 0.1558
vn -0.5114 0.8331 0.2107
vn -0.2588 0.5134 0.8182
vn -0.5309 0.8273 0.1836
vn -0.5251 0.8361 0.1588
vn -0.7165 0.6913 -0.0935
vn -0.5248 0.8262 0.2050
vn -0.6059 0.7698 -0.2010
vn -0.3931 0.9032 -0.1722
vn 0.3111 0.8395 -0.4455
vn -0.1031 0.9573 0.2699
vn -0.2150 0.9267 0.3082
vn -0.3149 0.9048 0.2868
vn 0.0026 1.0000 0.0039
vn -0.1909 0.9157 0.3537
vn -0.1150 0.9832 0.1414
vn -0.1389 0.9693 0.2030
vn -0.0758 0.9489 0.3065
vn -0.1341 0.9540 0.2682
vn -0.1689 0.9582 0.2309
vn -0.1506 0.9191 0.3642
vn -0.2470 0.9106 0.3314
vn -0.0818 0.9824 0.1676
vn 0.2213 0.9288 0.2974
vn 0.1339 0.8920 0.4317
vn -0.1145 0.9749 0.1910
vn -0.1774 0.9565 0.2314
vn -0.2588 0.9120 0.3183
vn -0.1355 0.9520 0.2744
vn -0.0874 0.9050 0.4164
vn -0.1101 0.9815 0.1565
vn -0.0354 0.9885 0.1469
vn -0.1449 0.9726 0.1819
vn -0.1184 0.9765 0.1804
vn -0.1767 0.9385 0.2965
vn -0.1018 0.9796 -0.1734
vn -0.1608 0.9563 0.2441
vn -0.1380 0.9376 0.3192
vn -0.2381 0.8990 0.3675
vn 0.1256 0.8934 0.4312
vn 0.0723 0.9686 0.2378
vn -0.2366 0.9397 0.2469
vn -0.1953 0.9679 0.1584
vn -0.1400 0.9672 0.2119
vn -0.0145 0.9593 0.2822
vn -0.1114 0.9804 0.1625
vn 0.0035 0.9560 0.2932
vn -0.0953 0.9657 0.2417
vn -0.2077 0.9093 0.3607
vn -0.2052 0.9620 0.1801
vn -0.1439 0.9717 0.1871
vn -0.1916 0.9552 0.2254
vn -0.1843 0.8998 0.3955
vn -0.3007 0.8794 0.3692
vn -0.1789 0.9512 0.2516
vn -0.1779 0.9509 0.2532
vn -0.1604 0.8981 0.4094
vn -0.1604 0.9759 0.1479
vn -0.1424 0.9206 0.3635
vn -0.2433 0.9422 0.2303
vn -0.3596 0.8786 0.3142
vn -0.2250 0.9496 0.2183
vn -0.2146 0.9451 0.2463
vn -0.3085 0.9404 0.1431
vn -0.2102 0.9381 0.2754
vn -0.2328 0.9242 0.3027
vn 0.1635 0.9828 -0.0856
vn -0.1055 0.9929 0.0549
vn -0.1766 0.9520 0.2500
vn -0.3592 0.7806 0.5115
vn 0.0164 0.9896 0.1430
vn -0.2108 0.9500 0.2306
vn -0.1958 0.9516 0.2368
vn -0.2396 0.9362 0.2570
vn -0.1830 0.8380 0.5141
vn -0.1453 0.9874 0.0621
vn -0.2553 0.9274 0.2735
vn -0.3146 0.9180 0.2414
vn -0.2861 0.8994 0.3305
vn -0.1363 0.9440 0.3006
vn -0.0754 0.8183 0.5698
vn -0.1406 0.9474 0.2876
vn -0.4061 0.7814 0.4739
vn -0.1111 0.8071 0.5798
vn 0.3516 0.7390 0.5747
vn -0.1820 0.9820 0.0512
vn -0.1727 0.9258 0.3363
vn -0.0517 0.9032 0.4262
vn -0.1725 0.9406 0.2925
vn -0.0170 0.8710 0.4910
vn -0.1413 0.8861 0.4415
vn 0.0657 0.9417 0.3299
vn -0.1914 0.7745 0.6030
vn -0.0140 0.7856 0.6186
vn -0.1674 0.9677 0.1885
vn -0.3022 0.9370 0.1754
vn -0.2669 0.9175 0.2950
vn -0.1978 0.8844 0.4226
vn -0.2154 0.7966 0.5649
vn -0.2426 0.8665 0.4363
vn -0.3205 0.8686 0.3778
vn -0.4128 0.7701 0.4863
vn -0.6615 0.7498 0.0149
vn -0.4981 0.7971 0.3414
vn -0.2879 0.9531 -0.0934
vn -0.4126 0.8886 0.2002
vn -0.3198 0.8407 0.4370
vn -0.7265 0.6776 0.1142
vn -0.7278 0.6751 0.1206
vn -0.5032 0.8429 0.1907
vn -0.3969 0.8522 0.3408
vn -0.4117 0.7735 0.4818
vn -0.2204 0.8472 0.4835
vn -0.3227 0.7676 0.5538
vn -0.7733 0.6181 0.1411
vn -0.6239 0.7802 0.0455
vn -0.7240 0.5241 0.4485
vn -0.5572 0.8302 -0.0132
vn -0.4310 0.8230 0.3699
vn -0.0923 0.8689 0.4863
vn -0.5798 0.8101 0.0868
vn -0.6208 0.7293 -0.2876
vn -0.6337 0.6853 0.3589
vn -0.4818 0.7823 0.3948
vn -0.2077 0.8472 0.4890
vn -0.4952 0.8187 0.2907
vn -0.7478 0.6603 0.0700
vn -0.7467 0.4823 0.4580
vn -0.7092 0.6595 0.2494
vn -0.6119 0.7415 0.2750
vn -0.4073 0.8824 0.2353
vn -0.5705 0.7359 0.3648
vn -0.5261 0.8261 0.2020
vn -0.4657 0.8726 0.1472
vn -0.5217 0.8328 0.1850
vn -0.5492 0.8138 0.1898
vn -0.4841 0.8605 0.1587
vn -0.5787 0.8060 -0.1246
vn -0.5786 0.8060 -0.1247
vn -0.1060 0.9944 0.0028
vt 0.004133 0.000000
vt 0.032058 0.419021
vt 0.000000 0.375753
vt 0.065011 0.522283
vt 0.152614 0.366730
vt 0.183372 0.337686
vt 0.114840 0.455613
vt 0.160460 0.425375
vt 0.125106 0.528576
vt 0.600206 0.188114
vt 0.153198 0.465670
vt 0.243898 0.382186
vt 0.220393 0.394020
vt 0.137049 0.675310
vt 0.175436 0.464052
vt 0.170951 0.562382
vt 0.175819 0.493169
vt 0.165643 0.527854
vt 0.146007 0.594108
vt 0.208854 0.437034
vt 0.191096 0.523349
vt 0.214523 0.483984
vt 0.184247 0.549536
vt 0.161615 0.623836
vt 0.188730 0.622235
vt 0.184771 0.646260
vt 0.261259 0.426150
vt 0.273343 0.458283
vt 0.258590 0.485571
vt 0.248402 0.537859
vt 0.225829 0.555913
vt 0.218916 0.573362
vt 0.172196 0.681185
vt 0.292273 0.399531
vt 0.233813 0.594127
vt 0.215735 0.625188
vt 0.205085 0.659384
vt 0.350270 0.309423
vt 0.305308 0.445684
vt 0.279474 0.497152
vt 0.246895 0.661463
vt 0.207915 0.717202
vt 0.367264 0.349829
vt 0.297615 0.551829
vt 0.273105 0.567112
vt 0.259432 0.626802
vt 0.207578 0.757488
vt 0.348687 0.390110
vt 0.336330 0.475613
vt 0.427198 0.281795
vt 0.365538 0.503505
vt 0.242168 0.732534
vt 0.245098 0.754973
vt 0.368538 0.432638
vt 0.322964 0.587576
vt 0.283176 0.698338
vt 0.408453 0.326166
vt 0.264670 0.733379
vt 0.423481 0.394725
vt 0.382504 0.418036
vt 0.301138 0.725035
vt 0.276314 0.747201
vt 0.406308 0.411365
vt 0.390845 0.445048
vt 0.295505 0.737829
vt 0.283265 0.766012
vt 0.504407 0.378114
vt 0.305701 0.758580
vt 0.285273 0.798076
vt 0.420703 0.439264
vt 0.420852 0.703502
vt 0.322679 0.753257
vt 0.295972 0.810023
vt 0.596960 0.313289
vt 0.321273 0.788306
vt 0.356710 0.721634
vt 0.346761 0.770167
vt 0.331470 0.806100
vt 0.318824 0.822505
vt 0.345194 0.787961
vt 0.319466 0.839011
vt 0.314621 0.853206
vt 0.305065 0.863826
vt 0.298553 0.891934
vt 0.388102 0.734591
vt 0.347948 0.833725
vt 0.325249 0.878922
vt 0.317720 0.908164
vt 0.368971 0.772585
vt 0.359174 0.797215
vt 0.356359 0.815421
vt 0.351492 0.864933
vt 0.332400 0.923102
vt 0.399630 0.746879
vt 0.392209 0.761703
vt 0.381400 0.784149
vt 0.385063 0.828097
vt 0.371376 0.854194
vt 0.546206 0.452340
vt 0.419909 0.735445
vt 0.393473 0.774210
vt 0.357776 0.884148
vt 0.343030 0.945036
vt 0.453218 0.721582
vt 0.424746 0.761584
vt 0.415616 0.772249
vt 0.400180 0.798691
vt 0.394311 0.844081
vt 0.386781 0.893494
vt 0.376230 0.957127
vt 0.444329 0.736738
vt 0.416328 0.789710
vt 0.409766 0.813123
vt 0.419704 0.854456
vt 0.408272 0.890860
vt 0.388149 0.917655
vt 0.606405 0.000000
vt 0.444039 0.762438
vt 0.600206 0.013680
vt 0.447318 0.776763
vt 0.420654 0.825636
vt 0.414538 0.870947
vt 0.402247 0.934475
vt 0.390255 0.964622
vt 0.394946 0.979881
vt 0.458612 0.745272
vt 0.442839 0.854199
vt 0.407973 0.905257
vt 0.413422 0.962997
vt 0.606405 0.029651
vt 0.447423 0.791280
vt 0.430261 0.877420
vt 0.429041 0.894751
vt 0.423561 0.916959
vt 0.429581 0.969679
vt 0.448898 0.893948
vt 0.461464 0.919490
vt 0.457866 0.975504
vt 0.492369 0.920745
vt 0.495203 0.979527
vt 0.514023 0.970771
vt 0.532233 0.933714
vt 0.529915 0.988076
vt 0.574046 0.926393
vt 0.548678 0.956628
vt 0.579841 1.000000
vt 0.591238 0.940241
vt 0.600206 0.974355
s 0
f 6/6/1 2/2/1 3/3/1
f 6/6/2 5/5/2 2/2/2
f 7/7/3 4/4/3 2/2/3
f 8/8/4 2/2/4 5/5/4
f 11/11/5 7/7/5 8/8/5
f 15/15/6 9/9/6 11/11/6
f 17/17/7 9/9/7 15/15/7
f 20/20/8 15/15/8 13/13/8
f 18/18/9 17/17/9 21/21/9
f 22/22/10 17/17/10 20/20/10
f 21/21/11 17/17/11 22/22/11
f 23/23/12 18/18/12 21/21/12
f 23/23/13 16/16/13 9/9/13
f 25/25/14 14/14/14 24/24/14
f 10/10/15 6/6/15 3/3/15
f 31/31/16 16/16/16 23/23/16
f 32/32/17 24/24/17 16/16/17
f 33/33/18 14/14/18 26/26/18
f 25/25/19 24/24/19 32/32/19
f 34/34/20 13/13/20 12/12/20
f 35/35/21 25/25/21 32/32/21
f 39/39/22 28/28/22 34/34/22
f 48/48/23 39/39/23 34/34/23
f 45/45/24 32/32/24 31/31/24
f 46/46/25 36/36/25 35/35/25
f 46/46/26 41/41/26 36/36/26
f 41/41/27 42/42/27 37/37/27
f 43/43/28 34/34/28 38/38/28
f 44/44/29 30/30/29 40/40/29
f 52/52/30 42/42/30 41/41/30
f 52/52/31 47/47/31 42/42/31
f 54/54/32 49/49/32 48/48/32
f 49/49/33 51/51/33 40/40/33
f 55/55/34 46/46/34 35/35/34
f 56/56/35 52/52/35 41/41/35
f 58/58/36 53/53/36 52/52/36
f 57/57/37 38/38/37 50/50/37
f 57/57/38 43/43/38 38/38/38
f 60/60/39 48/48/39 43/43/39
f 64/64/40 49/49/40 54/54/40
f 62/62/41 53/53/41 58/58/41
f 65/65/42 62/62/42 58/58/42
f 67/67/43 57/57/43 50/50/43
f 71/71/44 56/56/44 46/46/44
f 68/68/45 66/66/45 62/62/45
f 70/70/46 64/64/46 63/63/46
f 72/72/47 68/68/47 65/65/47
f 68/68/48 69/69/48 66/66/48
f 74/74/49 50/50/49 10/10/49
f 75/75/50 69/69/50 68/68/50
f 76/76/51 72/72/51 61/61/51
f 78/78/52 69/69/52 75/75/52
f 78/78/53 73/73/53 69/69/53
f 74/74/54 67/67/54 50/50/54
f 80/80/55 78/78/55 75/75/55
f 71/71/56 55/55/56 51/51/56
f 86/86/57 82/82/57 81/81/57
f 87/87/58 83/83/58 82/82/58
f 87/87/59 84/84/59 83/83/59
f 71/71/60 85/85/60 76/76/60
f 85/85/61 77/77/61 76/76/61
f 89/89/62 80/80/62 77/77/62
f 90/90/63 78/78/63 80/80/63
f 91/91/64 81/81/64 78/78/64
f 87/87/65 82/82/65 92/92/65
f 95/95/66 89/89/66 85/85/66
f 96/96/67 90/90/67 89/89/67
f 97/97/68 86/86/68 91/91/68
f 98/98/69 92/92/69 82/82/69
f 94/94/70 85/85/70 100/100/70
f 101/101/71 96/96/71 89/89/71
f 102/102/72 93/93/72 87/87/72
f 105/105/73 95/95/73 94/94/73
f 106/106/74 101/101/74 95/95/74
f 107/107/75 101/101/75 106/106/75
f 107/107/76 97/97/76 96/96/76
f 108/108/77 98/98/77 97/97/77
f 109/109/78 98/98/78 108/108/78
f 109/109/79 103/103/79 102/102/79
f 112/112/80 107/107/80 106/106/80
f 113/113/81 97/97/81 107/107/81
f 119/121/82 108/108/82 97/97/82
f 109/109/83 108/108/83 115/115/83
f 118/120/84 112/112/84 106/106/84
f 128/131/85 113/113/85 112/112/85
f 120/122/86 115/115/86 108/108/86
f 116/116/87 109/109/87 115/115/87
f 121/123/88 110/110/88 116/116/88
f 124/126/89 117/118/89 111/111/89
f 125/127/90 120/122/90 114/114/90
f 121/123/91 116/116/91 126/128/91
f 127/129/92 123/125/92 122/124/92
f 128/130/93 118/119/93 117/117/93
f 129/132/94 115/115/94 120/122/94
f 130/133/95 115/115/95 129/132/95
f 131/134/96 126/128/96 130/133/96
f 131/134/97 127/129/97 121/123/97
f 132/135/98 123/125/98 127/129/98
f 134/137/99 131/134/99 130/133/99
f 132/135/100 131/134/100 134/137/100
f 138/141/101 136/139/101 139/142/101
f 138/141/102 137/140/102 136/139/102
f 141/144/103 142/145/103 139/142/103
f 143/146/104 140/143/104 142/145/104
f 144/147/105 142/145/105 141/144/105
f 143/146/106 142/145/106 145/148/106
f 8/8/107 7/7/107 2/2/107
f 7/7/108 9/9/108 4/4/108
f 10/10/109 3/3/109 1/1/109
f 11/11/110 9/9/110 7/7/110
f 6/6/111 12/12/111 5/5/111
f 5/5/112 13/13/112 8/8/112
f 8/8/113 15/15/113 11/11/113
f 12/12/114 13/13/114 5/5/114
f 13/13/115 15/15/115 8/8/115
f 17/17/116 18/18/116 9/9/116
f 20/20/117 17/17/117 15/15/117
f 23/23/118 9/9/118 18/18/118
f 24/24/119 19/19/119 16/16/119
f 25/25/120 26/26/120 14/14/120
f 13/13/121 27/27/121 20/20/121
f 20/20/122 28/28/122 22/22/122
f 28/28/123 29/29/123 22/22/123
f 22/22/124 30/30/124 21/21/124
f 21/21/125 31/31/125 23/23/125
f 38/38/126 12/12/126 6/6/126
f 31/31/127 32/32/127 16/16/127
f 38/38/128 34/34/128 12/12/128
f 34/34/129 27/27/129 13/13/129
f 27/27/130 28/28/130 20/20/130
f 29/29/131 40/40/131 22/22/131
f 40/40/132 30/30/132 22/22/132
f 30/30/133 31/31/133 21/21/133
f 35/35/134 36/36/134 25/25/134
f 25/25/135 37/37/135 26/26/135
f 37/37/136 33/33/136 26/26/136
f 34/34/137 28/28/137 27/27/137
f 36/36/138 37/37/138 25/25/138
f 10/10/139 38/38/139 6/6/139
f 40/40/140 29/29/140 28/28/140
f 36/36/141 41/41/141 37/37/141
f 42/42/142 33/33/142 37/37/142
f 39/39/143 40/40/143 28/28/143
f 30/30/144 45/45/144 31/31/144
f 45/45/145 35/35/145 32/32/145
f 43/43/146 48/48/146 34/34/146
f 48/48/147 49/49/147 39/39/147
f 44/44/148 45/45/148 30/30/148
f 50/50/149 38/38/149 10/10/149
f 39/39/150 49/49/150 40/40/150
f 51/51/151 44/44/151 40/40/151
f 52/52/152 53/53/152 47/47/152
f 45/45/153 55/55/153 35/35/153
f 44/44/154 55/55/154 45/45/154
f 46/46/155 56/56/155 41/41/155
f 56/56/156 58/58/156 52/52/156
f 57/57/157 59/59/157 43/43/157
f 59/59/158 60/60/158 43/43/158
f 60/60/159 54/54/159 48/48/159
f 51/51/160 55/55/160 44/44/160
f 56/56/161 61/61/161 58/58/161
f 59/59/162 63/63/162 60/60/162
f 60/60/163 64/64/163 54/54/163
f 64/64/164 51/51/164 49/49/164
f 61/61/165 65/65/165 58/58/165
f 63/63/166 64/64/166 60/60/166
f 65/65/167 68/68/167 62/62/167
f 67/67/168 59/59/168 57/57/168
f 55/55/169 71/71/169 46/46/169
f 61/61/170 72/72/170 65/65/170
f 59/59/171 70/70/171 63/63/171
f 71/71/172 61/61/172 56/56/172
f 72/72/173 75/75/173 68/68/173
f 71/71/174 76/76/174 61/61/174
f 77/77/175 75/75/175 72/72/175
f 78/78/176 79/79/176 73/73/176
f 76/76/177 77/77/177 72/72/177
f 77/77/178 80/80/178 75/75/178
f 81/81/179 79/79/179 78/78/179
f 87/87/180 88/88/180 84/84/180
f 59/59/181 99/99/181 70/70/181
f 85/85/182 89/89/182 77/77/182
f 89/89/183 90/90/183 80/80/183
f 90/90/184 91/91/184 78/78/184
f 91/91/185 86/86/185 81/81/185
f 94/94/186 95/95/186 85/85/186
f 96/96/187 91/91/187 90/90/187
f 86/86/188 98/98/188 82/82/188
f 87/87/189 93/93/189 88/88/189
f 67/67/190 99/99/190 59/59/190
f 71/71/191 100/100/191 85/85/191
f 95/95/192 101/101/192 89/89/192
f 96/96/193 97/97/193 91/91/193
f 97/97/194 98/98/194 86/86/194
f 98/98/195 102/102/195 92/92/195
f 102/102/196 87/87/196 92/92/196
f 102/102/197 103/103/197 93/93/197
f 104/104/198 100/100/198 71/71/198
f 100/100/199 105/105/199 94/94/199
f 105/105/200 106/106/200 95/95/200
f 107/107/201 96/96/201 101/101/201
f 109/109/202 102/102/202 98/98/202
f 104/104/203 111/111/203 100/100/203
f 111/111/204 105/105/204 100/100/204
f 112/112/205 113/113/205 107/107/205
f 113/113/206 119/121/206 97/97/206
f 119/121/207 114/114/207 108/108/207
f 109/109/208 116/116/208 103/103/208
f 116/116/209 110/110/209 103/103/209
f 111/111/210 117/118/210 105/105/210
f 105/105/211 118/120/211 106/106/211
f 118/120/212 128/131/212 112/112/212
f 128/131/213 119/121/213 113/113/213
f 114/114/214 120/122/214 108/108/214
f 121/123/215 122/124/215 110/110/215
f 124/126/216 111/111/216 104/104/216
f 117/118/217 118/120/217 105/105/217
f 119/121/218 125/127/218 114/114/218
f 126/128/219 116/116/219 115/115/219
f 121/123/220 127/129/220 122/124/220
f 124/126/221 128/131/221 117/118/221
f 128/131/222 125/127/222 119/121/222
f 125/127/223 129/132/223 120/122/223
f 130/133/224 126/128/224 115/115/224
f 131/134/225 121/123/225 126/128/225
f 131/134/226 132/135/226 127/129/226
f 133/136/227 130/133/227 129/132/227
f 133/136/228 134/137/228 130/133/228
f 136/139/229 132/135/229 134/137/229
f 136/139/230 135/138/230 132/135/230
f 137/140/231 135/138/231 136/139/231
f 138/141/232 140/143/232 137/140/232
f 139/142/233 142/145/233 138/141/233
f 142/145/234 140/143/234 138/141/234
f 144/147/235 145/148/235 142/145/235
